<?xml version="1.0" encoding="UTF-8" standalone="no"?>
<svg
   xmlns:dc="http://purl.org/dc/elements/1.1/"
   xmlns:cc="http://creativecommons.org/ns#"
   xmlns:rdf="http://www.w3.org/1999/02/22-rdf-syntax-ns#"
   xmlns:svg="http://www.w3.org/2000/svg"
   xmlns="http://www.w3.org/2000/svg"
   xmlns:sodipodi="http://sodipodi.sourceforge.net/DTD/sodipodi-0.dtd"
   xmlns:inkscape="http://www.inkscape.org/namespaces/inkscape"
   version="1.1"
   id="Layer_1"
   x="0px"
   y="0px"
   viewBox="0 0 1280 960"
   enable-background="new 0 0 1280 960"
   xml:space="preserve"
   inkscape:version="0.91 r13725"
   sodipodi:docname="Blindfolded-Darts-Player.svg"><metadata
     id="metadata4298"><rdf:RDF><cc:Work
         rdf:about=""><dc:format>image/svg+xml</dc:format><dc:type
           rdf:resource="http://purl.org/dc/dcmitype/StillImage" /></cc:Work></rdf:RDF></metadata><defs
     id="defs4296" /><sodipodi:namedview
     pagecolor="#ffffff"
     bordercolor="#666666"
     borderopacity="1"
     objecttolerance="10"
     gridtolerance="10"
     guidetolerance="10"
     inkscape:pageopacity="0"
     inkscape:pageshadow="2"
     inkscape:window-width="1867"
     inkscape:window-height="1056"
     id="namedview4294"
     showgrid="false"
     inkscape:zoom="0.93125"
     inkscape:cx="638.92617"
     inkscape:cy="480"
     inkscape:window-x="53"
     inkscape:window-y="24"
     inkscape:window-maximized="1"
     inkscape:current-layer="g4238" /><rect
     style="opacity:1;fill:#ff0808;fill-opacity:0.35588235;fill-rule:nonzero;stroke:#5f6a71;stroke-width:7.98046112;stroke-linecap:round;stroke-linejoin:round;stroke-miterlimit:4;stroke-dasharray:none;stroke-opacity:1"
     id="rect4300"
     width="398.09232"
     height="488.63635"
     x="798.01886"
     y="158.93965"
     transform="matrix(1,0,-0.05330217,0.99857843,0,0)" /><g
     id="g4238"><ellipse
       style="opacity:1;fill:#08ff0f;fill-opacity:0.35588235;fill-rule:nonzero;stroke:none;stroke-width:8.39999962;stroke-linecap:round;stroke-linejoin:round;stroke-miterlimit:4;stroke-dasharray:none;stroke-opacity:1"
       id="path4302"
       cx="970.1391"
       cy="406.47922"
       rx="194.89932"
       ry="241.09535"
       transform="matrix(1,0,0.01336184,0.99991073,0,0)" /><path
       fill="#DA8C37"
       d="M485.45,56.6c10.05-3.71,20.98-3.81,31.56-4.09c16.93-0.46,34.38,3.27,48.58,12.8   c11.3799,7.54,20.56,19.13,23.3,32.69c2.35,11.02-0.31,22.89-6.97,31.96c-8.66,12.12-22.44,19.44-36.37,23.82   c-11.38,3.74-23.6,4.29-34.68,9c-3.52,1.51-7.07,3.51-9.25,6.76c-1.76,2.67-1.45,6.18-0.27,9.02c2.71,6.48,8.11,11.3,11.26,17.53   c1.2,2.26,1.78,5.39-0.12,7.45c-2.78,3.08-7.05,4.01-10.91,4.94c-16.03,2.92-32.4,2.47-48.62,2.36   c-15.68-0.05-31.31-1.45-46.99-1.35c-19.27,0.11-38.8,1.43-57.29,7.2c-11.78,3.74-23.5,9.7-31,19.84   c-4.88,6.48-7.28,14.49-7.75,22.53c-10.65,1.4-21.29,2.84-31.95,4.19c6.58-31.31,12.21-63.14,11.25-95.25   c-0.58-10.47-2.55-21.24,0.54-31.52c3.16-11.87,12.42-21.39,23.56-26.21c18.65-8.18,39.76-7.78,59.57-5.08   c7.52,0.8,14.78,3.27,22.35,3.59c5.01,3.03,10.94,3.65,16.35,5.67c24.99,8.77,52.19,12.19,78.41,7.73   c9.2-1.94,19.11-4.3,25.93-11.23c3.54-3.38,4.18-9.19,1.3-13.19c-5.87-8.96-16.72-11.98-25.04-17.95   c-5.17-3.78-10.89-7.81-12.97-14.18C477.36,61.32,481.91,57.93,485.45,56.6z"
       id="path4240" /><path
       fill="#DA8C37"
       d="M304.72,310.61c8.7,0.38,17.37,1.33,26.04,2.23c-0.34,0.42-1.02,1.28-1.36,1.7   C321.15,313.45,312.87,312.3,304.72,310.61z"
       id="path4242" /><path
       fill="#BC5D1B"
       d="M479.23,65.63c2.08,6.37,7.8,10.4,12.97,14.18c8.32,5.97,19.17,8.99,25.04,17.95   c2.88,4,2.24,9.81-1.3,13.19c-6.82,6.93-16.73,9.29-25.93,11.23c-26.22,4.46-53.42,1.04-78.41-7.73   c-5.41-2.02-11.34-2.64-16.35-5.67c16.53-0.04,32.18,5.91,48.27,8.86c9.67,1.79,19.56,3.56,29.42,2.55   c4.06-0.56,8.92-1.9,10.54-6.13c1.32-4.18-0.37-8.56-2.15-12.34c-3.44-7.25-9.48-13.06-11.99-20.78c-1.23-3.6-1.22-8.1,1.68-10.91   C473.2,67.64,476.55,67.21,479.23,65.63z"
       id="path4244" /><path
       fill="#E84F2F"
       d="M864.95,205.88c26.08-22.47,58.58-38.13,93.02-41.64c37.63-4.22,76.0701,6.56,107.5901,27.12   c34.47,22.42,60.87,55.76,78.46,92.66c38.28,80.37,36.6799,178.86-5.6,257.39c-17.0901,31.91-41.5601,60.32-72.4,79.6   c-16.89,10.59-35.61,18.32-55.13,22.41c-28.13,5.97-57.86,4.07-85.01-5.37c-44.75-15.34-81.47-49.23-105.48-89.44   c12.41,4.74,24.8199,9.51,37.19,14.38c19.41,21.01,43.64,38.05,71.05,46.73c25.57,8.3,53.53,8.96,79.45,1.82   c31.41-8.44,59.27-27.79,80.09-52.57c24.0199-28.53,39.45-63.64,47.1799-99.96c9.86-46.79,6.3101-96.37-10.28-141.23   c-13.89-37.53-37.2899-72.27-69.83-96.04c-29.12-21.43-66.12-32.89-102.28-28.62c-32.89,3.67-63.53,19.9-87.27,42.61   c-26.42,25.21-45.01,57.95-55.5,92.78c-14.2,47.36-14.25,98.78-0.69,146.29c6.91,24.42,17.89,47.62,32.19,68.58   c-9.67-2.68-19.27-5.61-28.9-8.4c-17.13-32.78-26.89-69.17-30.14-105.94c-3.8799-45.54,2.3701-92.15,19.69-134.54   C816.2,260.79,837.19,229.68,864.95,205.88z"
       id="path4246" /><path
       fill="#E84F2F"
       d="M244.13,504.26c4.46-0.67,8.87,0.6,13.27,1.2c69.93,10.79,139.85,21.6,209.78,32.38   c0.04,2.44,0.06,4.89,0.1,7.34c-0.73,1.16-1.36,2.42-1.27,3.84c-0.06,4.94,0.21,9.89-0.04,14.84c-3.94,0.1-7.88,0.21-11.82,0.31   c-0.23,5.23-0.22,10.46,0.03,15.69c4.36,0.23,8.73,0.08,13.08-0.35c-16.76,53.53-33.97,106.93-50.93,160.4   c-0.55,1.71-1.09,3.4301-1.62,5.16c-23.73,0.02-47.33-2.99-70.75-6.51c-39.99-6.31-79.6-14.89-118.8-24.97   c-6-60.2-12.72-120.34-18.85-180.54c3.23-2.04,6.5-4.03,9.66-6.16c-2.55-4.54-5.71-8.78-7.45-13.73   C220.4,510.23,232.27,507.26,244.13,504.26 M419.56,538.54c-0.73,6.92-1.62,13.83-2.62,20.73c6.96,1.02,13.96,1.72,20.92,2.76   c0.93-6.98,1.8-13.96,2.63-20.95C433.5,540.37,426.56,539.24,419.56,538.54 M413.09,569.45c-10.32,34.93-21.09,69.75-31.34,104.7   c2.99,7.2599,7.02,14.09,10.35,21.22c6.88-6.98,13.99-13.74,20.74-20.83c2.7-10.06,4.18-20.47,6.43-30.65   c4.96-24.85,9.99-49.69,14.92-74.54C427.15,569.44,420.12,569.27,413.09,569.45z"
       id="path4252" /><path
       fill="#EEB78E"
       d="M452.96,210.84c16.22,0.11,32.59,0.56,48.62-2.36c0.42,8.41,0.88,16.81,1.23,25.23   c-64.3,8.41-128.58,16.92-192.88,25.35c0.47-8.04,2.87-16.05,7.75-22.53c7.5-10.14,19.22-16.1,31-19.84   c18.49-5.77,38.02-7.09,57.29-7.2C421.65,209.39,437.28,210.79,452.96,210.84z"
       id="path4254" /><path
       fill="#EEB78E"
       d="M273.2,307.7c10.5,1.08,21.05,1.6,31.52,2.91c8.15,1.69,16.43,2.84,24.68,3.93   c0.34-0.42,1.02-1.28,1.36-1.7c58.53,4.71,117,10.26,175.53,14.99l0.89,0.05c0.25,13.62,1.43,27.2,1.62,40.82   c-2.96,0.21-6.8-0.4-8.77,2.39c-0.32,1.9,0.22,3.81,0.79,5.61c-21.69-3.27-43.45-6.17-65.15-9.38c0.07,17.49,0,34.97,0.04,52.46   c-16.86-1.78-34.34-1.98-50.65,3.23c-8.24,2.71-16.33,7.72-20.25,15.75c-4.43,9.37-3.71,21.85,4.03,29.31   c8.91,8.77,21.72,11.64,33.65,13.66c24.7,3.63,49.73,1.75,74.55,0.98c4.29-0.46,8.72,2.24,9.4,6.69   c1.29,7.87-1.36,15.69-3.81,23.09c-4.22,11.27-9.01,22.45-15.35,32.69c-0.04-2.45-0.06-4.9-0.1-7.34   c-69.93-10.78-139.85-21.59-209.78-32.38c-4.4-0.6-8.81-1.87-13.27-1.2c1.25-3.12,2.89-6.08,3.9-9.28   c2.48-47.13,5.15-94.41,12.81-141.05C263.32,338.12,267.81,322.74,273.2,307.7z"
       id="path4256" /><path
       fill="#EEB78E"
       d="M583.32,383.36c11.21,0.56,22.44-0.18,33.65,0.35c3.7,0.4,7.98,0.7,10.63,3.68   c2.09,2.18,2.3,5.46,1.73,8.29c-2.23,5.34-7.84,8.18-13.27,9.12c-5.64,0.89-11.38,0.43-17.07,0.55c-3.57-0.11-7.47,0.16-10.61-1.82   c-2.83-1.84-3.85-5.27-5.11-8.2C583.45,391.35,585.66,387.07,583.32,383.36z"
       id="path4258" /><path
       fill="#EEB78E"
       d="M161.89,723.97c7.35-5.36,17.27-3.8199,24.76,0.41c1.34,3.7,4.53,6.08,7.06,8.91   c3.04,3.35,4.15,7.86,5.38,12.09c-1.17,3.72-1.29,7.85-3.64,11.13c-4.77,7.96-15.45,11.46-24.03,7.97   c-5.28-1.9-8.66-6.6-12.47-10.43c-4.3-4.39-6.37-10.81-5.43-16.88C154.51,731.88,157.51,727.09,161.89,723.97z"
       id="path4260" /><path
       fill="#FFFFFF"
       d="M309.93,259.06c64.3-8.43,128.58-16.94,192.88-25.35l1.3-0.18c0.78,27.48,1.3,54.97,2.49,82.43   c0.13,3.9-0.03,7.83,0.64,11.7l-0.95,0.17c-58.53-4.73-117-10.28-175.53-14.99c-8.67-0.9-17.34-1.85-26.04-2.23   c-10.47-1.31-21.02-1.83-31.52-2.91c-3.39,0.2-7.85-2.09-10.3,1.13c-5.47,5.55-11.02,11.01-16.51,16.53   c-3.54-3.47-6.99-7.02-10.56-10.46c9.32-7.07,18.74-14,28.07-21.05c1.23-0.43,1.36-2.64-0.02-2.9   c-11.78-5.09-23.61-10.08-35.42-15.11c2.64-2.05,5.61-3.63,8.54-5.22c9.34,1.92,18.49,4.89,27.76,7.16   c-0.01-4.29-0.03-8.57,0.01-12.86c4.43-0.37,8.81-1.12,13.21-1.67C288.64,261.9,299.28,260.46,309.93,259.06z"
       id="path4262" /><path
       fill="#FFFFFF"
       d="M419.56,538.54c7,0.7,13.94,1.83,20.93,2.54c-0.83,6.99-1.7,13.97-2.63,20.95   c-6.96-1.04-13.96-1.7401-20.92-2.76C417.94,552.37,418.83,545.46,419.56,538.54z"
       id="path4264" /><path
       fill="#FFFFFF"
       d="M413.09,569.45c7.03-0.18,14.06-0.01,21.1-0.1c-4.93,24.85-9.96,49.69-14.92,74.54   c-2.25,10.18-3.73,20.59-6.43,30.65c-6.75,7.09-13.86,13.85-20.74,20.83c-3.33-7.13-7.36-13.96-10.35-21.22   C392,639.2,402.77,604.38,413.09,569.45z"
       id="path4266" /><path
       fill="#48A1DA"
       d="M508.8,368.7c14.03,1.16,27.84,6.04,39.35,14.18c4.12,2.94,7.7,6.72,9.91,11.32   c4.01,0.04,8.02,0.1,12.03,0.22c0.74,4.55,3.33,8.47,5.89,12.2c-6.08-0.51-12.15-1.1-18.19-1.91   c-5.13,7.71-13.63,12.19-22.15,15.15c-10.43,3.49-21.59,5.58-32.59,4.34c-2.73-0.27-6.96-1.58-5.85-5.18   c2.3-6.71,7.61-12,9.63-18.9c-1.72-1.11-3.68-1.97-4.92-3.65c1.75-0.96,3.61-1.7,5.46-2.48c-1.2-6.11-4.09-11.63-6.55-17.29   c-0.57-1.8-1.11-3.71-0.79-5.61C502,368.3,505.84,368.91,508.8,368.7z"
       id="path4268" /><path
       fill="#48A1DA"
       d="M591.11,408.29c-6.24-0.09-9.31-7.56-7.84-12.96c1.26,2.93,2.28,6.36,5.11,8.2   c3.14,1.98,7.04,1.71,10.61,1.82c5.69-0.12,11.43,0.34,17.07-0.55c5.43-0.94,11.04-3.78,13.27-9.12   c15.23,0.21,30.47,0.66,45.71,0.92c4.7,0.23,10.48,3.39,10.45,8.71c7.8,1,15.64,1.76,23.44,2.81c-0.04,0.59-0.12,1.77-0.15,2.36   c-7.78,0.46-15.6-0.29-23.4-0.24c-1.74,4.95-7.57,7.05-12.44,6.48c-18.56-1.92-37.12-3.86-55.68-5.75   C608.55,409.99,599.83,409.15,591.11,408.29z"
       id="path4270" /><path
       fill="#48A1DA"
       d="M754.9,502.58c-0.12-2.71,2.7-3.94,5-3.08c7.86,1.94,14.94,6.27,21.19,11.32   c5.95,4.9,11.61,10.99,13.29,18.76c6.15,1.76,12.29,3.56,18.42,5.4c9.63,2.79,19.23,5.72,28.9,8.4   c13.05,3.95,26.18,7.66,39.24,11.58c3.97,1.05,7.26,4.72,6.8,9c2.35,0.95,4.75,1.8,6.99,3.02l0.03,1.48   c-2.74,0.29-5.39-0.73-8.04-1.2c-2.3799,3.04-6.5099,4.36-10.16,2.99c-6.37-2.3-12.62-4.93-18.97-7.26   c-12.3701-4.87-24.78-9.64-37.19-14.38c-9.52-3.72-19.09-7.32-28.58-11.1c-6.1,5.64-14.8,6.86-22.77,7.21   c-7.76,0.07-15.77-0.71-22.93-3.89c-1.99-0.73-4.02-2.99-2.41-5.07c3.31-4.31,7.91-7.45,11.03-11.93   c-0.98-1.08-1.97-2.14-2.86-3.27c0.67-1.76,3.06-0.87,4.48-1.4C756.9,513.56,755.16,508.12,754.9,502.58z"
       id="path4272" /><path
       fill="#48A1DA"
       d="M648.22,627.39c2.27-4.66,8.11-6.21,12.86-5.04c36.36,7.71,72.81,15.04,109.13,22.95   c6.99-8.64,18.34-11.74,28.83-13.57c8.89-1.29,18.15-1.76,26.9,0.63c2.39,0.5,5.37,2.78,3.75,5.49   c-3.09,6.04-8.55,10.61-11.07,17.02c1.54,1.11,3.05,2.22,4.58,3.38c-1.73,1.24-3.79,1.76-5.77,2.43   c0.62,7.03,4.05,13.39,5.22,20.28c0.49,3.19-3.1,4.38-5.64,4.12c-10.55-0.91-20.55-5.14-29.61-10.44   c-7.63-4.68-15.28-10.58-18.55-19.22c-37.3199-4.74-74.66-9.28-111.98-13.99c-4.57-0.75-9.65-4.29-9.31-9.43   c-7.27-1.71-14.6-3.19-21.86-4.97c-0.01-0.63-0.04-1.89-0.06-2.52C633.17,625.44,640.71,626.31,648.22,627.39z"
       id="path4274" /><path
       fill="#48A1DA"
       d="M1165.65,645.53c3.24-1.84,6.5699-3.88,10.36-4.3c2.05-0.26,3.5699,1.79,3.64,3.68   c0.61,6.47-0.85,13.1,0.96,19.46c1.6901,0.31,4.08-0.73,5.41,0.6c-0.3101,1.78-2.12,2.88-3.0601,4.33   c3.9601,5.75,10.66,8.54,15.5701,13.28c1.78,1.49,1.9299,4.41-0.01,5.86c-3.86,3.26-8.75,4.94-13.4501,6.59   c-10.0199,3.29-20.6899,4.45-31.1799,3.56c-4.72-0.54-9.38-1.95-13.34-4.6201c-32.9,17.9901-65.7101,36.11-98.5801,54.15   c-4.15,2.28-10.64,2.52-13.4-1.99c-6.8699,2.81-13.6099,5.94-20.4899,8.72c-0.45-0.46-1.35-1.39-1.8-1.85   c6.66-3.76,13.4-7.38,20.11-11.06c-0.98-5.01,2.88-9.55,7.22-11.45c34.02-15.21,68.04-30.43,102.0601-45.64   c0.36-7.63,4.26-14.46,8.83-20.36C1150.35,656.99,1157.55,650.53,1165.65,645.53z"
       id="path4276" /><path
       fill="#48A1DA"
       d="M831.96,726.87c36.31-9.41,72.58-18.98,108.88-28.41c4.71-1.15,10.78,0.23,12.62,5.23   c7.53-0.98,14.99-2.94,22.57-3.25c0.92,1.77-0.73,2.6-2.09,2.79c-6.52,1.59-12.97,3.4-19.49,4.97c-0.4,4.86-4.75,8.45-9.32,9.3   c-36.92,6.5-73.85,12.91-110.76,19.45c-2.93,9.74-11.33,16.43-19.49,21.8c-8.24,5.06-17.25,9.34-26.9,10.65   c-2.4,0.44-6.12-0.21-5.95-3.33c0.41-6.88,3.9399-13.17,3.96-20.13c-1.92-0.59-3.84-1.18-5.72-1.83c1.48-1.4,3.05-2.72,4.63-4.02   c-2.31-4.44-5.47-8.34-8.78-12.05c-1.67-2.13-3.87-4.24-4-7.11c0.65-3.05,4.25-3.75,6.78-4.5c12.27-2.77,25.23-2.01,37.3,1.38   C822.04,719.56,827.85,722.21,831.96,726.87z"
       id="path4278" /><path
       fill="#DFA77E"
       d="M570.09,394.42c-0.21-5.9,5.89-7.97,9.91-10.68c0.83-0.09,2.49-0.29,3.32-0.38   c2.34,3.71,0.13,7.99-0.05,11.97c-1.47,5.4,1.6,12.87,7.84,12.96c8.72,0.86,17.44,1.7,26.15,2.68c0.25,0.79,0.76,2.36,1.01,3.15   c-1.02,1-1.89,2.23-3.24,2.8c-4.91,1.97-10.16,2.88-15.38,3.58c-2.85,0.32-5.7,0.6-8.55,0.87c-1.43-2.65-2.83-5.31-4.17-8   c-1.37,0.57-2.72,1.14-4.08,1.71c-2.41-2.71-4.74-5.52-6.87-8.46C573.42,402.89,570.83,398.97,570.09,394.42z"
       id="path4280" /><path
       fill="#DFA77E"
       d="M186.65,724.38c5.18,2.5,10.99,4.78,14.49,9.59c2.67,3.66,0.74,8.44-2.05,11.41   c-1.23-4.23-2.34-8.74-5.38-12.09C191.18,730.46,187.99,728.08,186.65,724.38z"
       id="path4282" /><path
       fill="#EB582C"
       d="M599.65,420.5c5.22-0.7,10.47-1.61,15.38-3.58c7.35,17.67,9.37,37.54,5.4399,56.28   c-4.06,19.93-14.56,38.19-28.45,52.91c-21.19,22.59-49.52,37.54-79.13,45.85c-14.88,4.15-30.22,6.58-45.63,7.55   c-4.35,0.43-8.72,0.58-13.08,0.35c-0.25-5.23-0.26-10.46-0.03-15.69c3.94-0.1,7.88-0.21,11.82-0.31c0.25-4.95-0.02-9.9,0.04-14.84   c-0.09-1.42,0.54-2.68,1.27-3.84c0.02,6.2,0,12.4-0.01,18.59c39.1-2.39,78.63-15.82,107.72-42.73   c14.67-13.62,26.18-31.27,30.15-51.08C608.66,453.42,606.39,435.94,599.65,420.5z"
       id="path4284" /><path
       fill="#EB582C"
       d="M204.69,514.18c1.27-0.36,2.55-0.7,3.83-1.02c1.74,4.95,4.9,9.19,7.45,13.73   c-3.16,2.13-6.43,4.12-9.66,6.16c-26.77,17.54-50.03,41.19-64.5,69.93c-10.52,20.82-16.27,44.73-12.52,68.02   c3.23,21.12,15.41,40.41,32.6,52.97c-4.38,3.1201-7.38,7.91-8.37,13.2c-14.85-10.61-26.79-25.35-33.66-42.3   c-8.46-20.41-9.22-43.43-4.4-64.84c6.89-30.4301,23.92-57.86,45.54-80.05c12.48-12.76,26.61-23.87,41.81-33.21   C203.81,516.19,204.44,515.32,204.69,514.18z"
       id="path4286" /><path
       fill="#5F6A71"
       d="M225.16,713.59c39.2,10.08,78.81,18.66,118.8,24.97c23.42,3.52,47.02,6.53,70.75,6.51   c0.53-1.73,1.07-3.45,1.62-5.16c1.23,38.38,2.88,76.7401,4.38,115.1201c-14.39,22.17-28.73,44.37-43.08,66.56   c-0.64,0.97-1.5,1.68-2.58,2.1299c0.67-1.5099,1.44-2.96,2.2-4.41c-7.75,1.35-15.55,2.41-23.31,3.66   c10.79-22.68,21.72-45.29,32.58-67.9399c-8.23-28.6-15.98-57.36-24.38-85.91c-29.78,1.75-59.53,4.3-89.29,6.46   c-6.78,22.01-13.77,43.95-20.58,65.95c-0.39,1.08-0.72,2.31-1.79,2.9399c-20.39,14.72-41.03,29.11-61.29,44.01   c-7.84,1.43-15.89,0.39-23.82,0.6c1-1.45,2.01-2.89,3.04-4.31c12.73-16.78,25.2-33.75,37.89-50.56c0.68-0.95,1.42-1.93,1.54-3.12   C213.68,791.94,219.09,752.71,225.16,713.59z"
       id="path4288" /><path
       fill="#262626"
       d="M166.26,884.8c0.54-0.01,1.61-0.02,2.15-0.03c-1.03,1.42-2.04,2.86-3.04,4.31   c7.93-0.21,15.98,0.83,23.82-0.6c0.54,0.07,1.61,0.2,2.15,0.27c-1.47,1.62-3.9,2.83-4.19,5.22c-0.36,2.98,2.44,4.91,4.64,6.32   c8.19,4.72,17.39,7.48,25.44,12.47c1.39,1.04,3.51,2.27,3.18,4.32c-2.82,1.86-6.4,0.86-9.54,0.65   c-15.85-2.34-31.36-6.6-46.73-11.05c-2.6-0.44-3.81-3.22-3.41-5.61C161.39,895.33,163.67,889.9,166.26,884.8z"
       id="path4290" /><path
       fill="#262626"
       d="M353.94,922.97c7.76-1.25,15.56-2.31,23.31-3.66c-0.76,1.45-1.53,2.9-2.2,4.41   c-1.26,3.16,2.19,5.52,4.88,6.14c9.51,2.38,19.5,1.9,29.05,4.12c2.08,0.34,3.81,1.55,5.25,3.05c-3.3,3.14-8.05,3.49-12.29,4.33   c-11.88,1.84-23.89,2.66-35.88,3.29c-3.65,0.0699-7.32,0.41-10.96,0.0699c-2.01-0.55-2.68-2.93-3.13-4.71   c-1.1-5.54-0.48-11.24,0.29-16.77C352.68,923.17,353.52,923.04,353.94,922.97z"
       id="path4292" /><ellipse
       style="opacity:1;fill:#ff0808;fill-opacity:1;fill-rule:nonzero;stroke:none;stroke-width:8.39999962;stroke-linecap:round;stroke-linejoin:round;stroke-miterlimit:4;stroke-dasharray:none;stroke-opacity:1"
       id="path5738"
       cx="847.78522"
       cy="187.91946"
       rx="6.9798656"
       ry="7.5167785" /><ellipse
       style="opacity:1;fill:#ff0808;fill-opacity:1;fill-rule:nonzero;stroke:none;stroke-width:8.39999962;stroke-linecap:round;stroke-linejoin:round;stroke-miterlimit:4;stroke-dasharray:none;stroke-opacity:1"
       id="path5738-3"
       cx="1139.3289"
       cy="594.89935"
       rx="6.9798656"
       ry="7.5167785" /><ellipse
       style="opacity:1;fill:#ff0808;fill-opacity:1;fill-rule:nonzero;stroke:none;stroke-width:8.39999962;stroke-linecap:round;stroke-linejoin:round;stroke-miterlimit:4;stroke-dasharray:none;stroke-opacity:1"
       id="path5738-6"
       cx="1128.5906"
       cy="196.51007"
       rx="6.9798656"
       ry="7.5167785" /><ellipse
       style="opacity:1;fill:#ff0808;fill-opacity:1;fill-rule:nonzero;stroke:none;stroke-width:8.39999962;stroke-linecap:round;stroke-linejoin:round;stroke-miterlimit:4;stroke-dasharray:none;stroke-opacity:1"
       id="path5738-7"
       cx="1167.2483"
       cy="185.77182"
       rx="6.9798656"
       ry="7.5167785" /><ellipse
       style="opacity:1;fill:#ff0808;fill-opacity:1;fill-rule:nonzero;stroke:none;stroke-width:8.39999962;stroke-linecap:round;stroke-linejoin:round;stroke-miterlimit:4;stroke-dasharray:none;stroke-opacity:1"
       id="path5738-5"
       cx="811.81207"
       cy="234.09396"
       rx="6.9798656"
       ry="7.5167785" /><ellipse
       style="opacity:1;fill:#ff0808;fill-opacity:1;fill-rule:nonzero;stroke:none;stroke-width:8.39999962;stroke-linecap:round;stroke-linejoin:round;stroke-miterlimit:4;stroke-dasharray:none;stroke-opacity:1"
       id="path5738-35"
       cx="808.59058"
       cy="186.84564"
       rx="6.9798656"
       ry="7.5167785" /><ellipse
       style="opacity:1;fill:#ff0808;fill-opacity:1;fill-rule:nonzero;stroke:none;stroke-width:8.39999962;stroke-linecap:round;stroke-linejoin:round;stroke-miterlimit:4;stroke-dasharray:none;stroke-opacity:1"
       id="path5738-62"
       cx="791.40936"
       cy="615.302"
       rx="6.9798656"
       ry="7.5167785" /><ellipse
       style="opacity:1;fill:#ff0808;fill-opacity:1;fill-rule:nonzero;stroke:none;stroke-width:8.39999962;stroke-linecap:round;stroke-linejoin:round;stroke-miterlimit:4;stroke-dasharray:none;stroke-opacity:1"
       id="path5738-9"
       cx="854.76514"
       cy="617.44965"
       rx="6.9798656"
       ry="7.5167785" /><ellipse
       style="opacity:1;fill:#ff0808;fill-opacity:1;fill-rule:nonzero;stroke:none;stroke-width:8.39999962;stroke-linecap:round;stroke-linejoin:round;stroke-miterlimit:4;stroke-dasharray:none;stroke-opacity:1"
       id="path5738-1"
       cx="798.92621"
       cy="585.23492"
       rx="6.9798656"
       ry="7.5167785" /><ellipse
       style="opacity:1;fill:#ff0808;fill-opacity:1;fill-rule:nonzero;stroke:none;stroke-width:8.39999962;stroke-linecap:round;stroke-linejoin:round;stroke-miterlimit:4;stroke-dasharray:none;stroke-opacity:1"
       id="path5738-2"
       cx="1152.2147"
       cy="258.79193"
       rx="6.9798656"
       ry="7.5167785" /><ellipse
       style="opacity:1;fill:#ff0808;fill-opacity:1;fill-rule:nonzero;stroke:none;stroke-width:8.39999962;stroke-linecap:round;stroke-linejoin:round;stroke-miterlimit:4;stroke-dasharray:none;stroke-opacity:1"
       id="path5738-70"
       cx="1152.2147"
       cy="224.42952"
       rx="6.9798656"
       ry="7.5167785" /><ellipse
       style="opacity:1;fill:#40ed00;fill-opacity:1;fill-rule:nonzero;stroke:none;stroke-width:8.39999962;stroke-linecap:round;stroke-linejoin:round;stroke-miterlimit:4;stroke-dasharray:none;stroke-opacity:1"
       id="path5738-93"
       cx="883.75836"
       cy="414.49664"
       rx="6.9798656"
       ry="7.5167785" /><ellipse
       style="opacity:1;fill:#40ed00;fill-opacity:1;fill-rule:nonzero;stroke:none;stroke-width:8.39999962;stroke-linecap:round;stroke-linejoin:round;stroke-miterlimit:4;stroke-dasharray:none;stroke-opacity:1"
       id="path5738-93-6"
       cx="890.20135"
       cy="474.63086"
       rx="6.9798656"
       ry="7.5167785" /><ellipse
       style="opacity:1;fill:#40ed00;fill-opacity:1;fill-rule:nonzero;stroke:none;stroke-width:8.39999962;stroke-linecap:round;stroke-linejoin:round;stroke-miterlimit:4;stroke-dasharray:none;stroke-opacity:1"
       id="path5738-93-2"
       cx="890.20135"
       cy="518.65771"
       rx="6.9798656"
       ry="7.5167785" /><ellipse
       style="opacity:1;fill:#40ed00;fill-opacity:1;fill-rule:nonzero;stroke:none;stroke-width:8.39999962;stroke-linecap:round;stroke-linejoin:round;stroke-miterlimit:4;stroke-dasharray:none;stroke-opacity:1"
       id="path5738-93-61"
       cx="902.01343"
       cy="572.349"
       rx="6.9798656"
       ry="7.5167785" /><ellipse
       style="opacity:1;fill:#40ed00;fill-opacity:1;fill-rule:nonzero;stroke:none;stroke-width:8.39999962;stroke-linecap:round;stroke-linejoin:round;stroke-miterlimit:4;stroke-dasharray:none;stroke-opacity:1"
       id="path5738-93-8"
       cx="991.14093"
       cy="575.5705"
       rx="6.9798656"
       ry="7.5167785" /><ellipse
       style="opacity:1;fill:#40ed00;fill-opacity:1;fill-rule:nonzero;stroke:none;stroke-width:8.39999962;stroke-linecap:round;stroke-linejoin:round;stroke-miterlimit:4;stroke-dasharray:none;stroke-opacity:1"
       id="path5738-93-7"
       cx="1045.906"
       cy="502.55032"
       rx="6.9798656"
       ry="7.5167785" /><ellipse
       style="opacity:1;fill:#40ed00;fill-opacity:1;fill-rule:nonzero;stroke:none;stroke-width:8.39999962;stroke-linecap:round;stroke-linejoin:round;stroke-miterlimit:4;stroke-dasharray:none;stroke-opacity:1"
       id="path5738-93-9"
       cx="1019.0604"
       cy="426.30872"
       rx="6.9798656"
       ry="7.5167785" /><ellipse
       style="opacity:1;fill:#40ed00;fill-opacity:1;fill-rule:nonzero;stroke:none;stroke-width:8.39999962;stroke-linecap:round;stroke-linejoin:round;stroke-miterlimit:4;stroke-dasharray:none;stroke-opacity:1"
       id="path5738-93-20"
       cx="981.4765"
       cy="373.69128"
       rx="6.9798656"
       ry="7.5167785" /><ellipse
       style="opacity:1;fill:#40ed00;fill-opacity:1;fill-rule:nonzero;stroke:none;stroke-width:8.39999962;stroke-linecap:round;stroke-linejoin:round;stroke-miterlimit:4;stroke-dasharray:none;stroke-opacity:1"
       id="path5738-93-23"
       cx="910.604"
       cy="279.19464"
       rx="6.9798656"
       ry="7.5167785" /><ellipse
       style="opacity:1;fill:#40ed00;fill-opacity:1;fill-rule:nonzero;stroke:none;stroke-width:8.39999962;stroke-linecap:round;stroke-linejoin:round;stroke-miterlimit:4;stroke-dasharray:none;stroke-opacity:1"
       id="path5738-93-75"
       cx="934.22821"
       cy="248.0537"
       rx="6.9798656"
       ry="7.5167785" /><ellipse
       style="opacity:1;fill:#40ed00;fill-opacity:1;fill-rule:nonzero;stroke:none;stroke-width:8.39999962;stroke-linecap:round;stroke-linejoin:round;stroke-miterlimit:4;stroke-dasharray:none;stroke-opacity:1"
       id="path5738-93-92"
       cx="978.255"
       cy="269.53021"
       rx="6.9798656"
       ry="7.5167785" /><ellipse
       style="opacity:1;fill:#40ed00;fill-opacity:1;fill-rule:nonzero;stroke:none;stroke-width:8.39999962;stroke-linecap:round;stroke-linejoin:round;stroke-miterlimit:4;stroke-dasharray:none;stroke-opacity:1"
       id="path5738-93-28"
       cx="996.51007"
       cy="313.55704"
       rx="6.9798656"
       ry="7.5167785" /><ellipse
       style="opacity:1;fill:#40ed00;fill-opacity:1;fill-rule:nonzero;stroke:none;stroke-width:8.39999962;stroke-linecap:round;stroke-linejoin:round;stroke-miterlimit:4;stroke-dasharray:none;stroke-opacity:1"
       id="path5738-93-97"
       cx="1034.094"
       cy="350.06711"
       rx="6.9798656"
       ry="7.5167785" /><ellipse
       style="opacity:1;fill:#40ed00;fill-opacity:1;fill-rule:nonzero;stroke:none;stroke-width:8.39999962;stroke-linecap:round;stroke-linejoin:round;stroke-miterlimit:4;stroke-dasharray:none;stroke-opacity:1"
       id="path5738-93-3"
       cx="1058.792"
       cy="307.11411"
       rx="6.9798656"
       ry="7.5167785" /><ellipse
       style="opacity:1;fill:#40ed00;fill-opacity:1;fill-rule:nonzero;stroke:none;stroke-width:8.39999962;stroke-linecap:round;stroke-linejoin:round;stroke-miterlimit:4;stroke-dasharray:none;stroke-opacity:1"
       id="path5738-93-612"
       cx="1045.906"
       cy="264.16107"
       rx="6.9798656"
       ry="7.5167785" /><ellipse
       style="opacity:1;fill:#40ed00;fill-opacity:1;fill-rule:nonzero;stroke:none;stroke-width:8.39999962;stroke-linecap:round;stroke-linejoin:round;stroke-miterlimit:4;stroke-dasharray:none;stroke-opacity:1"
       id="path5738-93-93"
       cx="1022.2819"
       cy="228.72484"
       rx="6.9798656"
       ry="7.5167785" /><ellipse
       style="opacity:1;fill:#40ed00;fill-opacity:1;fill-rule:nonzero;stroke:none;stroke-width:8.39999962;stroke-linecap:round;stroke-linejoin:round;stroke-miterlimit:4;stroke-dasharray:none;stroke-opacity:1"
       id="path5738-93-1"
       cx="978.255"
       cy="223.3557"
       rx="6.9798656"
       ry="7.5167785" /><ellipse
       style="opacity:1;fill:#40ed00;fill-opacity:1;fill-rule:nonzero;stroke:none;stroke-width:8.39999962;stroke-linecap:round;stroke-linejoin:round;stroke-miterlimit:4;stroke-dasharray:none;stroke-opacity:1"
       id="path5738-93-94"
       cx="941.745"
       cy="244.83221"
       rx="6.9798656"
       ry="7.5167785" /><ellipse
       style="opacity:1;fill:#40ed00;fill-opacity:1;fill-rule:nonzero;stroke:none;stroke-width:8.39999962;stroke-linecap:round;stroke-linejoin:round;stroke-miterlimit:4;stroke-dasharray:none;stroke-opacity:1"
       id="path5738-93-78"
       cx="897.71814"
       cy="289.93289"
       rx="6.9798656"
       ry="7.5167785" /><ellipse
       style="opacity:1;fill:#40ed00;fill-opacity:1;fill-rule:nonzero;stroke:none;stroke-width:8.39999962;stroke-linecap:round;stroke-linejoin:round;stroke-miterlimit:4;stroke-dasharray:none;stroke-opacity:1"
       id="path5738-93-4"
       cx="875.16779"
       cy="321.07382"
       rx="6.9798656"
       ry="7.5167785" /><ellipse
       style="opacity:1;fill:#40ed00;fill-opacity:1;fill-rule:nonzero;stroke:none;stroke-width:8.39999962;stroke-linecap:round;stroke-linejoin:round;stroke-miterlimit:4;stroke-dasharray:none;stroke-opacity:1"
       id="path5738-93-5"
       cx="850.46979"
       cy="345.77182"
       rx="6.9798656"
       ry="7.5167785" /><ellipse
       style="opacity:1;fill:#40ed00;fill-opacity:1;fill-rule:nonzero;stroke:none;stroke-width:8.39999962;stroke-linecap:round;stroke-linejoin:round;stroke-miterlimit:4;stroke-dasharray:none;stroke-opacity:1"
       id="path5738-93-0"
       cx="837.58386"
       cy="372.61746"
       rx="6.9798656"
       ry="7.5167785" /><ellipse
       style="opacity:1;fill:#40ed00;fill-opacity:1;fill-rule:nonzero;stroke:none;stroke-width:8.39999962;stroke-linecap:round;stroke-linejoin:round;stroke-miterlimit:4;stroke-dasharray:none;stroke-opacity:1"
       id="path5738-93-36"
       cx="838.65771"
       cy="415.57047"
       rx="6.9798656"
       ry="7.5167785" /><ellipse
       style="opacity:1;fill:#40ed00;fill-opacity:1;fill-rule:nonzero;stroke:none;stroke-width:8.39999962;stroke-linecap:round;stroke-linejoin:round;stroke-miterlimit:4;stroke-dasharray:none;stroke-opacity:1"
       id="path5738-93-10"
       cx="873.02014"
       cy="414.49664"
       rx="6.9798656"
       ry="7.5167785" /><ellipse
       style="opacity:1;fill:#40ed00;fill-opacity:1;fill-rule:nonzero;stroke:none;stroke-width:8.39999962;stroke-linecap:round;stroke-linejoin:round;stroke-miterlimit:4;stroke-dasharray:none;stroke-opacity:1"
       id="path5738-93-63"
       cx="929.93286"
       cy="404.83221"
       rx="6.9798656"
       ry="7.5167785" /><ellipse
       style="opacity:1;fill:#40ed00;fill-opacity:1;fill-rule:nonzero;stroke:none;stroke-width:8.39999962;stroke-linecap:round;stroke-linejoin:round;stroke-miterlimit:4;stroke-dasharray:none;stroke-opacity:1"
       id="path5738-93-206"
       cx="946.04028"
       cy="468.18793"
       rx="6.9798656"
       ry="7.5167785" /><ellipse
       style="opacity:1;fill:#40ed00;fill-opacity:1;fill-rule:nonzero;stroke:none;stroke-width:8.39999962;stroke-linecap:round;stroke-linejoin:round;stroke-miterlimit:4;stroke-dasharray:none;stroke-opacity:1"
       id="path5738-93-15"
       cx="950.33557"
       cy="495.03357"
       rx="6.9798656"
       ry="7.5167785" /><ellipse
       style="opacity:1;fill:#40ed00;fill-opacity:1;fill-rule:nonzero;stroke:none;stroke-width:8.39999962;stroke-linecap:round;stroke-linejoin:round;stroke-miterlimit:4;stroke-dasharray:none;stroke-opacity:1"
       id="path5738-93-54"
       cx="1017.9866"
       cy="473.55704"
       rx="6.9798656"
       ry="7.5167785" /><ellipse
       style="opacity:1;fill:#40ed00;fill-opacity:1;fill-rule:nonzero;stroke:none;stroke-width:8.39999962;stroke-linecap:round;stroke-linejoin:round;stroke-miterlimit:4;stroke-dasharray:none;stroke-opacity:1"
       id="path5738-93-76"
       cx="1060.9396"
       cy="434.89932"
       rx="6.9798656"
       ry="7.5167785" /><ellipse
       style="opacity:1;fill:#40ed00;fill-opacity:1;fill-rule:nonzero;stroke:none;stroke-width:8.39999962;stroke-linecap:round;stroke-linejoin:round;stroke-miterlimit:4;stroke-dasharray:none;stroke-opacity:1"
       id="path5738-93-56"
       cx="1087.7853"
       cy="402.68457"
       rx="6.9798656"
       ry="7.5167785" /><ellipse
       style="opacity:1;fill:#40ed00;fill-opacity:1;fill-rule:nonzero;stroke:none;stroke-width:8.39999962;stroke-linecap:round;stroke-linejoin:round;stroke-miterlimit:4;stroke-dasharray:none;stroke-opacity:1"
       id="path5738-93-937"
       cx="1091.0067"
       cy="394.09396"
       rx="6.9798656"
       ry="7.5167785" /><ellipse
       style="opacity:1;fill:#40ed00;fill-opacity:1;fill-rule:nonzero;stroke:none;stroke-width:8.39999962;stroke-linecap:round;stroke-linejoin:round;stroke-miterlimit:4;stroke-dasharray:none;stroke-opacity:1"
       id="path5738-93-45"
       cx="1082.4161"
       cy="445.63757"
       rx="6.9798656"
       ry="7.5167785" /><ellipse
       style="opacity:1;fill:#40ed00;fill-opacity:1;fill-rule:nonzero;stroke:none;stroke-width:8.39999962;stroke-linecap:round;stroke-linejoin:round;stroke-miterlimit:4;stroke-dasharray:none;stroke-opacity:1"
       id="path5738-93-25"
       cx="1078.1208"
       cy="475.70471"
       rx="6.9798656"
       ry="7.5167785" /><ellipse
       style="opacity:1;fill:#40ed00;fill-opacity:1;fill-rule:nonzero;stroke:none;stroke-width:8.39999962;stroke-linecap:round;stroke-linejoin:round;stroke-miterlimit:4;stroke-dasharray:none;stroke-opacity:1"
       id="path5738-93-47"
       cx="1081.3423"
       cy="487.51678"
       rx="6.9798656"
       ry="7.5167785" /><ellipse
       style="opacity:1;fill:#40ed00;fill-opacity:1;fill-rule:nonzero;stroke:none;stroke-width:8.39999962;stroke-linecap:round;stroke-linejoin:round;stroke-miterlimit:4;stroke-dasharray:none;stroke-opacity:1"
       id="path5738-93-44"
       cx="1078.1208"
       cy="507.91946"
       rx="6.9798656"
       ry="7.5167785" /><ellipse
       style="opacity:1;fill:#40ed00;fill-opacity:1;fill-rule:nonzero;stroke:none;stroke-width:8.39999962;stroke-linecap:round;stroke-linejoin:round;stroke-miterlimit:4;stroke-dasharray:none;stroke-opacity:1"
       id="path5738-93-30"
       cx="1052.349"
       cy="542.28186"
       rx="6.9798656"
       ry="7.5167785" /><ellipse
       style="opacity:1;fill:#40ed00;fill-opacity:1;fill-rule:nonzero;stroke:none;stroke-width:8.39999962;stroke-linecap:round;stroke-linejoin:round;stroke-miterlimit:4;stroke-dasharray:none;stroke-opacity:1"
       id="path5738-93-786"
       cx="1027.651"
       cy="562.68457"
       rx="6.9798656"
       ry="7.5167785" /><ellipse
       style="opacity:1;fill:#40ed00;fill-opacity:1;fill-rule:nonzero;stroke:none;stroke-width:8.39999962;stroke-linecap:round;stroke-linejoin:round;stroke-miterlimit:4;stroke-dasharray:none;stroke-opacity:1"
       id="path5738-93-88"
       cx="1002.953"
       cy="521.87921"
       rx="6.9798656"
       ry="7.5167785" /><ellipse
       style="opacity:1;fill:#40ed00;fill-opacity:1;fill-rule:nonzero;stroke:none;stroke-width:8.39999962;stroke-linecap:round;stroke-linejoin:round;stroke-miterlimit:4;stroke-dasharray:none;stroke-opacity:1"
       id="path5738-93-43"
       cx="970.73828"
       cy="539.06042"
       rx="6.9798656"
       ry="7.5167785" /><ellipse
       style="opacity:1;fill:#40ed00;fill-opacity:1;fill-rule:nonzero;stroke:none;stroke-width:8.39999962;stroke-linecap:round;stroke-linejoin:round;stroke-miterlimit:4;stroke-dasharray:none;stroke-opacity:1"
       id="path5738-93-14"
       cx="929.93286"
       cy="508.99329"
       rx="6.9798656"
       ry="7.5167785" /><ellipse
       style="opacity:1;fill:#40ed00;fill-opacity:1;fill-rule:nonzero;stroke:none;stroke-width:8.39999962;stroke-linecap:round;stroke-linejoin:round;stroke-miterlimit:4;stroke-dasharray:none;stroke-opacity:1"
       id="path5738-93-920"
       cx="890.20135"
       cy="502.55032"
       rx="6.9798656"
       ry="7.5167785" /><ellipse
       style="opacity:1;fill:#40ed00;fill-opacity:1;fill-rule:nonzero;stroke:none;stroke-width:8.39999962;stroke-linecap:round;stroke-linejoin:round;stroke-miterlimit:4;stroke-dasharray:none;stroke-opacity:1"
       id="path5738-93-68"
       cx="862.28186"
       cy="514.36243"
       rx="6.9798656"
       ry="7.5167785" /><ellipse
       style="opacity:1;fill:#40ed00;fill-opacity:1;fill-rule:nonzero;stroke:none;stroke-width:8.39999962;stroke-linecap:round;stroke-linejoin:round;stroke-miterlimit:4;stroke-dasharray:none;stroke-opacity:1"
       id="path5738-93-926"
       cx="844.02686"
       cy="474.63086"
       rx="6.9798656"
       ry="7.5167785" /><ellipse
       style="opacity:1;fill:#40ed00;fill-opacity:1;fill-rule:nonzero;stroke:none;stroke-width:8.39999962;stroke-linecap:round;stroke-linejoin:round;stroke-miterlimit:4;stroke-dasharray:none;stroke-opacity:1"
       id="path5738-93-64"
       cx="837.58386"
       cy="453.15436"
       rx="6.9798656"
       ry="7.5167785" /><ellipse
       style="opacity:1;fill:#40ed00;fill-opacity:1;fill-rule:nonzero;stroke:none;stroke-width:8.39999962;stroke-linecap:round;stroke-linejoin:round;stroke-miterlimit:4;stroke-dasharray:none;stroke-opacity:1"
       id="path5738-93-95"
       cx="827.91943"
       cy="413.42282"
       rx="6.9798656"
       ry="7.5167785" /><ellipse
       style="opacity:1;fill:#40ed00;fill-opacity:1;fill-rule:nonzero;stroke:none;stroke-width:8.39999962;stroke-linecap:round;stroke-linejoin:round;stroke-miterlimit:4;stroke-dasharray:none;stroke-opacity:1"
       id="path5738-93-04"
       cx="817.18121"
       cy="373.69128"
       rx="6.9798656"
       ry="7.5167785" /><ellipse
       style="opacity:1;fill:#40ed00;fill-opacity:1;fill-rule:nonzero;stroke:none;stroke-width:8.39999962;stroke-linecap:round;stroke-linejoin:round;stroke-miterlimit:4;stroke-dasharray:none;stroke-opacity:1"
       id="path5738-93-87"
       cx="833.28857"
       cy="315.70471"
       rx="6.9798656"
       ry="7.5167785" /><ellipse
       style="opacity:1;fill:#40ed00;fill-opacity:1;fill-rule:nonzero;stroke:none;stroke-width:8.39999962;stroke-linecap:round;stroke-linejoin:round;stroke-miterlimit:4;stroke-dasharray:none;stroke-opacity:1"
       id="path5738-93-17"
       cx="840.80536"
       cy="286.7114"
       rx="6.9798656"
       ry="7.5167785" /><ellipse
       style="opacity:1;fill:#40ed00;fill-opacity:1;fill-rule:nonzero;stroke:none;stroke-width:8.39999962;stroke-linecap:round;stroke-linejoin:round;stroke-miterlimit:4;stroke-dasharray:none;stroke-opacity:1"
       id="path5738-93-27"
       cx="931.00671"
       cy="325.36914"
       rx="6.9798656"
       ry="7.5167785" /><ellipse
       style="opacity:1;fill:#40ed00;fill-opacity:1;fill-rule:nonzero;stroke:none;stroke-width:8.39999962;stroke-linecap:round;stroke-linejoin:round;stroke-miterlimit:4;stroke-dasharray:none;stroke-opacity:1"
       id="path5738-93-22"
       cx="923.48993"
       cy="351.14093"
       rx="6.9798656"
       ry="7.5167785" /><ellipse
       style="opacity:1;fill:#40ed00;fill-opacity:1;fill-rule:nonzero;stroke:none;stroke-width:8.39999962;stroke-linecap:round;stroke-linejoin:round;stroke-miterlimit:4;stroke-dasharray:none;stroke-opacity:1"
       id="path5738-93-610"
       cx="891.27515"
       cy="357.58389"
       rx="6.9798656"
       ry="7.5167785" /><ellipse
       style="opacity:1;fill:#40ed00;fill-opacity:1;fill-rule:nonzero;stroke:none;stroke-width:8.39999962;stroke-linecap:round;stroke-linejoin:round;stroke-miterlimit:4;stroke-dasharray:none;stroke-opacity:1"
       id="path5738-93-615"
       cx="967.51678"
       cy="438.12082"
       rx="6.9798656"
       ry="7.5167785" /><ellipse
       style="opacity:1;fill:#40ed00;fill-opacity:1;fill-rule:nonzero;stroke:none;stroke-width:8.39999962;stroke-linecap:round;stroke-linejoin:round;stroke-miterlimit:4;stroke-dasharray:none;stroke-opacity:1"
       id="path5738-93-949"
       cx="980.40271"
       cy="473.55704"
       rx="6.9798656"
       ry="7.5167785" /><ellipse
       style="opacity:1;fill:#40ed00;fill-opacity:1;fill-rule:nonzero;stroke:none;stroke-width:8.39999962;stroke-linecap:round;stroke-linejoin:round;stroke-miterlimit:4;stroke-dasharray:none;stroke-opacity:1"
       id="path5738-93-09"
       cx="1065.2349"
       cy="368.32214"
       rx="6.9798656"
       ry="7.5167785" /><ellipse
       style="opacity:1;fill:#40ed00;fill-opacity:1;fill-rule:nonzero;stroke:none;stroke-width:8.39999962;stroke-linecap:round;stroke-linejoin:round;stroke-miterlimit:4;stroke-dasharray:none;stroke-opacity:1"
       id="path5738-93-177"
       cx="1098.5234"
       cy="321.07382"
       rx="6.9798656"
       ry="7.5167785" /><ellipse
       style="opacity:1;fill:#40ed00;fill-opacity:1;fill-rule:nonzero;stroke:none;stroke-width:8.39999962;stroke-linecap:round;stroke-linejoin:round;stroke-miterlimit:4;stroke-dasharray:none;stroke-opacity:1"
       id="path5738-93-11"
       cx="1109.2617"
       cy="361.87918"
       rx="6.9798656"
       ry="7.5167785" /><ellipse
       style="opacity:1;fill:#40ed00;fill-opacity:1;fill-rule:nonzero;stroke:none;stroke-width:8.39999962;stroke-linecap:round;stroke-linejoin:round;stroke-miterlimit:4;stroke-dasharray:none;stroke-opacity:1"
       id="path5738-93-59"
       cx="1123.2214"
       cy="411.27518"
       rx="6.9798656"
       ry="7.5167785" /><ellipse
       style="opacity:1;fill:#40ed00;fill-opacity:1;fill-rule:nonzero;stroke:none;stroke-width:8.39999962;stroke-linecap:round;stroke-linejoin:round;stroke-miterlimit:4;stroke-dasharray:none;stroke-opacity:1"
       id="path5738-93-77"
       cx="1109.2617"
       cy="451.00671"
       rx="6.9798656"
       ry="7.5167785" /><ellipse
       style="opacity:1;fill:#40ed00;fill-opacity:1;fill-rule:nonzero;stroke:none;stroke-width:8.39999962;stroke-linecap:round;stroke-linejoin:round;stroke-miterlimit:4;stroke-dasharray:none;stroke-opacity:1"
       id="path5738-93-67"
       cx="1048.0537"
       cy="588.45636"
       rx="6.9798656"
       ry="7.5167785" /><ellipse
       style="opacity:1;fill:#40ed00;fill-opacity:1;fill-rule:nonzero;stroke:none;stroke-width:8.39999962;stroke-linecap:round;stroke-linejoin:round;stroke-miterlimit:4;stroke-dasharray:none;stroke-opacity:1"
       id="path5738-93-365"
       cx="962.14764"
       cy="597.047"
       rx="6.9798656"
       ry="7.5167785" /><ellipse
       style="opacity:1;fill:#40ed00;fill-opacity:1;fill-rule:nonzero;stroke:none;stroke-width:8.39999962;stroke-linecap:round;stroke-linejoin:round;stroke-miterlimit:4;stroke-dasharray:none;stroke-opacity:1"
       id="path5738-93-639"
       cx="911.67786"
       cy="223.3557"
       rx="6.9798656"
       ry="7.5167785" /><ellipse
       style="opacity:1;fill:#40ed00;fill-opacity:1;fill-rule:nonzero;stroke:none;stroke-width:8.39999962;stroke-linecap:round;stroke-linejoin:round;stroke-miterlimit:4;stroke-dasharray:none;stroke-opacity:1"
       id="path5738-93-48"
       cx="947.11407"
       cy="198.65771"
       rx="6.9798656"
       ry="7.5167785" /><ellipse
       style="opacity:1;fill:#ff0808;fill-opacity:1;fill-rule:nonzero;stroke:none;stroke-width:8.39999962;stroke-linecap:round;stroke-linejoin:round;stroke-miterlimit:4;stroke-dasharray:none;stroke-opacity:1"
       id="path5738-12"
       cx="825.77179"
       cy="204.02684"
       rx="6.9798656"
       ry="7.5167785" /><ellipse
       style="opacity:1;fill:#ff0808;fill-opacity:1;fill-rule:nonzero;stroke:none;stroke-width:8.39999962;stroke-linecap:round;stroke-linejoin:round;stroke-miterlimit:4;stroke-dasharray:none;stroke-opacity:1"
       id="path5738-939"
       cx="835.43622"
       cy="177.18121"
       rx="6.9798656"
       ry="7.5167785" /><ellipse
       style="opacity:1;fill:#ff0808;fill-opacity:1;fill-rule:nonzero;stroke:none;stroke-width:8.39999962;stroke-linecap:round;stroke-linejoin:round;stroke-miterlimit:4;stroke-dasharray:none;stroke-opacity:1"
       id="path5738-0"
       cx="1103.8926"
       cy="181.47652"
       rx="6.9798656"
       ry="7.5167785" /><ellipse
       style="opacity:1;fill:#ff0808;fill-opacity:1;fill-rule:nonzero;stroke:none;stroke-width:8.39999962;stroke-linecap:round;stroke-linejoin:round;stroke-miterlimit:4;stroke-dasharray:none;stroke-opacity:1"
       id="path5738-8"
       cx="1053.4229"
       cy="166.44295"
       rx="6.9798656"
       ry="7.5167785" /><ellipse
       style="opacity:1;fill:#ff0808;fill-opacity:1;fill-rule:nonzero;stroke:none;stroke-width:8.39999962;stroke-linecap:round;stroke-linejoin:round;stroke-miterlimit:4;stroke-dasharray:none;stroke-opacity:1"
       id="path5738-85"
       cx="779.59729"
       cy="492.88589"
       rx="6.9798656"
       ry="7.5167785" /><ellipse
       style="opacity:1;fill:#ff0808;fill-opacity:1;fill-rule:nonzero;stroke:none;stroke-width:8.39999962;stroke-linecap:round;stroke-linejoin:round;stroke-miterlimit:4;stroke-dasharray:none;stroke-opacity:1"
       id="path5738-09"
       cx="1068.4564"
       cy="633.55707"
       rx="6.9798656"
       ry="7.5167785" /><ellipse
       style="opacity:1;fill:#ff0808;fill-opacity:1;fill-rule:nonzero;stroke:none;stroke-width:8.39999962;stroke-linecap:round;stroke-linejoin:round;stroke-miterlimit:4;stroke-dasharray:none;stroke-opacity:1"
       id="path5738-63"
       cx="1115.7047"
       cy="628.18793"
       rx="6.9798656"
       ry="7.5167785" /><ellipse
       style="opacity:1;fill:#ff0808;fill-opacity:1;fill-rule:nonzero;stroke:none;stroke-width:8.39999962;stroke-linecap:round;stroke-linejoin:round;stroke-miterlimit:4;stroke-dasharray:none;stroke-opacity:1"
       id="path5738-856"
       cx="1083.49"
       cy="630.33557"
       rx="6.9798656"
       ry="7.5167785" /><ellipse
       style="opacity:1;fill:#ff0808;fill-opacity:1;fill-rule:nonzero;stroke:none;stroke-width:8.39999962;stroke-linecap:round;stroke-linejoin:round;stroke-miterlimit:4;stroke-dasharray:none;stroke-opacity:1"
       id="path5738-11"
       cx="1152.2147"
       cy="546.57721"
       rx="6.9798656"
       ry="7.5167785" /><ellipse
       style="opacity:1;fill:#ff0808;fill-opacity:1;fill-rule:nonzero;stroke:none;stroke-width:8.39999962;stroke-linecap:round;stroke-linejoin:round;stroke-miterlimit:4;stroke-dasharray:none;stroke-opacity:1"
       id="path5738-59"
       cx="780.67114"
       cy="558.38928"
       rx="6.9798656"
       ry="7.5167785" /><ellipse
       style="opacity:1;fill:#ff0808;fill-opacity:1;fill-rule:nonzero;stroke:none;stroke-width:8.39999962;stroke-linecap:round;stroke-linejoin:round;stroke-miterlimit:4;stroke-dasharray:none;stroke-opacity:1"
       id="path5738-84"
       cx="818.255"
       cy="579.86578"
       rx="6.9798656"
       ry="7.5167785" /></g></svg>